# xmcd
#
# Track frame offsets: 
#        182
#        14725
#        28777
#        44182
#        59140
#        72022
#        85512
#        98492
#        111320
#        123802
#        138482
#        151717
#        166075
#        180070
#        192537
#        206437
#        218255
#        229587
#        241662
#        253855
#
# Disc length: 3554 seconds
#
# Revision: 0
# Processed by: cddbd v1.5.2PL0 Copyright (c) Steve Scherf et al.
# Submitted via: ExactAudioCopyFreeDBPlugin 1.0
#
DISCID=050de014
DTITLE=Roosevelt Sykes - Roosevelt Sykes (1931-1941) with Charlie McFa
DTITLE=dden and Sidney Catlett
DYEAR=1900
DGENRE=Blues
TTITLE0=Groceries On The Shelf No. 2
TTITLE1=Yellow Woman Blues
TTITLE2=Piggly Wiggly Blues
TTITLE3=People, People
TTITLE4=She Left Me Cold In Hand
TTITLE5=Little And Low
TTITLE6=Night Time Is The Right Time
TTITLE7=Groceries On My Shelf (Piggly Wiggly)
TTITLE8=People People
TTITLE9=Hospital, Heaven Or Hell
TTITLE10=Love Lease Blues
TTITLE11=Mistake In Life
TTITLE12=Night Time Is The Right Time, No. 2
TTITLE13=Right Now
TTITLE14=Essie Mae Blues
TTITLE15=Doin' The Sally Long (Flames Of Evaporation)
TTITLE16=K.M.A. Blues
TTITLE17=Prison Gate Blues
TTITLE18=Low As A Toad
TTITLE19=15¢ A Day
EXTD=
EXTT0=
EXTT1=
EXTT2=
EXTT3=
EXTT4=
EXTT5=
EXTT6=
EXTT7=
EXTT8=
EXTT9=
EXTT10=
EXTT11=
EXTT12=
EXTT13=
EXTT14=
EXTT15=
EXTT16=
EXTT17=
EXTT18=
EXTT19=
PLAYORDER=
